# xmcd
#
# Track frame offsets: 
#        150
#        28659
#        50528
#        68640
#        86228
#        110022
#        121399
#        143778
#        161934
#        185134
#        204678
#
# Disc length: 3024 seconds
#
# Revision: 1
# Processed by: cddbd v1.5.2PL0 Copyright (c) Steve Scherf et al.
# Submitted via: ExactAudioCopy v1.0b2
#
DISCID=a90bce0b
DTITLE=Chris Rea - Blue Guitars - A Collection Of Songs
DYEAR=2007
DGENRE=Blues
TTITLE0=Where The Blues Come From
TTITLE1=Too Much Drinking
TTITLE2=Only A Fools Play By The Rules
TTITLE3=The Soul OF My Father's Shadows
TTITLE4=Lone Star Boogie
TTITLE5=She's A Whole Heap Of Trouble
TTITLE6=If I Ever Get Over You
TTITLE7=Come Change My World
TTITLE8=Lucky Day
TTITLE9=Screw You And Your Deep Blue Sea
TTITLE10=Clarkson Blues
EXTD=
EXTT0=
EXTT1=
EXTT2=
EXTT3=
EXTT4=
EXTT5=
EXTT6=
EXTT7=
EXTT8=
EXTT9=
EXTT10=
PLAYORDER=
